<svg xmlns="http://www.w3.org/2000/svg" xmlns:xlink="http://www.w3.org/1999/xlink" viewBox="0 0 43.45 39.6">
  <defs>
    <style>
      .cls-1 {
        fill: url(#linear-gradient);
      }

      .cls-2 {
        fill: url(#linear-gradient-2);
      }

      .cls-3 {
        fill: url(#linear-gradient-3);
      }

      .cls-4 {
        fill: url(#linear-gradient-4);
      }

      .cls-5 {
        fill: url(#linear-gradient-5);
      }

      .cls-6 {
        fill: url(#linear-gradient-6);
      }

      .cls-7 {
        fill: url(#linear-gradient-7);
      }

      .cls-8 {
        fill: url(#linear-gradient-8);
      }

      .cls-9 {
        fill: url(#linear-gradient-9);
      }

      .cls-10 {
        fill: url(#linear-gradient-10);
      }
    </style>
    <linearGradient id="linear-gradient" x1="21.15" y1="29.52" x2="21.97" y2="29.52" gradientUnits="userSpaceOnUse">
      <stop offset="0" stop-color="#a824e6"/>
      <stop offset="1" stop-color="#7957ff"/>
    </linearGradient>
    <linearGradient id="linear-gradient-2" x1="0" y1="25.32" x2="43.45" y2="25.32" xlink:href="#linear-gradient"/>
    <linearGradient id="linear-gradient-3" x1="20.53" y1="17.86" x2="25.8" y2="17.86" xlink:href="#linear-gradient"/>
    <linearGradient id="linear-gradient-4" x1="14.11" y1="8.75" x2="34.63" y2="8.75" xlink:href="#linear-gradient"/>
    <linearGradient id="linear-gradient-5" x1="19.58" y1="16.08" x2="24.19" y2="16.08" xlink:href="#linear-gradient"/>
    <linearGradient id="linear-gradient-6" x1="27.74" y1="13.49" x2="29.34" y2="13.49" xlink:href="#linear-gradient"/>
    <linearGradient id="linear-gradient-7" x1="16.89" y1="10.71" x2="21.16" y2="10.71" xlink:href="#linear-gradient"/>
    <linearGradient id="linear-gradient-8" x1="26.48" y1="8.7" x2="31.85" y2="8.7" xlink:href="#linear-gradient"/>
    <linearGradient id="linear-gradient-9" x1="25.62" y1="16.16" x2="28.41" y2="16.16" xlink:href="#linear-gradient"/>
    <linearGradient id="linear-gradient-10" x1="21.96" y1="5.2" x2="25.98" y2="5.2" xlink:href="#linear-gradient"/>
  </defs>
  <g id="Layer_2" data-name="Layer 2">
    <g id="Layer_1-2" data-name="Layer 1">
      <g>
        <path class="cls-1" d="M21.56,21.65a.41.41,0,0,0-.41.41V37A.41.41,0,0,0,22,37V22.06A.41.41,0,0,0,21.56,21.65Z"/>
        <path class="cls-2" d="M43.34,20.09,38.1,14.44a.29.29,0,0,0-.13-.08s0,0,0,0l-6-1.89a.4.4,0,0,0-.51.27.41.41,0,0,0,.27.52l4.78,1.5L21.56,19.39,6.69,14.72l9.14-2.87a.41.41,0,0,0,.27-.52.43.43,0,0,0-.52-.27L5.2,14.32h0s-.06,0-.09.06a.58.58,0,0,0-.12.1H5L.06,22.61A.38.38,0,0,0,0,23a.39.39,0,0,0,.26.24l4.62,1.46V34.1a.4.4,0,0,0,.29.39l16.24,5.09a.37.37,0,0,0,.24,0l16.25-5.09a.4.4,0,0,0,.28-.39V22.31l4.95-1.55a.4.4,0,0,0,.27-.29A.41.41,0,0,0,43.34,20.09ZM5.5,15.21l15.44,4.85-.17.27-4.3,7.11L1,22.59Zm31.89,7.36V33.8l-15.83,5-15.83-5V24.93l10.62,3.33.18.06.12,0a.29.29,0,0,0,.1,0,.1.1,0,0,0,.07,0,.45.45,0,0,0,.19-.15l4.62-7.64,4.88,5.24a.42.42,0,0,0,.17.1h.06l.07,0,.12,0,.16-.05ZM26.94,25l-3.67-3.94-1-1L34.6,16.16l3.08-1,4.61,5Z"/>
        <path class="cls-3" d="M20.94,19.08a.39.39,0,0,0,.18,0l3.25-1.53.85.4a.41.41,0,0,0,.35-.75l-1-.48a.43.43,0,0,0-.35,0L20.77,18.3a.41.41,0,0,0-.2.55A.4.4,0,0,0,20.94,19.08Z"/>
        <path class="cls-4" d="M18.06,12.88,17.55,17a.41.41,0,0,0,.36.46H18a.42.42,0,0,0,.41-.36l.53-4.35a.4.4,0,0,0-.1-.33l-3.67-4a.8.8,0,0,1,0-1.11.77.77,0,0,1,.39-.2l5.25-1A.4.4,0,0,0,21.09,6l2.59-4.74A.8.8,0,0,1,24.74.91a.74.74,0,0,1,.31.32L27.64,6a.4.4,0,0,0,.28.21l5.28,1a.76.76,0,0,1,.47.31.77.77,0,0,1,.12.61.84.84,0,0,1-.25.46L30,12.46a.44.44,0,0,0-.11.33l.33,2.69a.41.41,0,0,0,.46.35.41.41,0,0,0,.36-.45l-.31-2.5,3.44-3.72a1.66,1.66,0,0,0,.24-2.11,1.58,1.58,0,0,0-1-.66l-5.08-1L25.78.85a1.59,1.59,0,0,0-.65-.66A1.62,1.62,0,0,0,23,.83l-2.5,4.58-5.07,1a1.76,1.76,0,0,0-.79.41,1.65,1.65,0,0,0-.08,2.27Z"/>
        <path class="cls-5" d="M20,17.39a.53.53,0,0,0,.17,0L24,15.57a.41.41,0,0,0,.2-.55.42.42,0,0,0-.55-.2l-3.11,1.47.13-1a.41.41,0,1,0-.82-.1l-.21,1.76a.42.42,0,0,0,.16.39A.46.46,0,0,0,20,17.39Z"/>
        <path class="cls-6" d="M29.21,11a.4.4,0,0,0-.58,0l-.78.84a.41.41,0,0,0-.11.33l.44,3.56a.41.41,0,0,0,.41.36h.05a.41.41,0,0,0,.36-.46l-.42-3.37.65-.7A.4.4,0,0,0,29.21,11Z"/>
        <path class="cls-7" d="M21.15,7.82a.4.4,0,0,0-.48-.32l-3.44.67a.42.42,0,0,0-.32.27.43.43,0,0,0,.09.41l3.15,3.42L20,13.47a.41.41,0,0,0,.36.45h.05a.42.42,0,0,0,.41-.37L21,12.18a.4.4,0,0,0-.1-.33l-2.78-3,2.72-.54A.41.41,0,0,0,21.15,7.82Z"/>
        <path class="cls-8" d="M30.08,9.43a.42.42,0,0,0,0,.58.38.38,0,0,0,.28.11.39.39,0,0,0,.3-.13l1.06-1.13a.39.39,0,0,0,.09-.41.4.4,0,0,0-.31-.28L27,7.28a.4.4,0,0,0-.48.33.41.41,0,0,0,.32.48l3.83.75Z"/>
        <path class="cls-9" d="M27.82,17A.39.39,0,0,0,28,17a.41.41,0,0,0,.18-.78l-2-.94a.41.41,0,0,0-.36.74Z"/>
        <path class="cls-10" d="M22.38,7.42a.43.43,0,0,0,.36-.21l1.63-3,.84,1.54a.42.42,0,0,0,.56.16.41.41,0,0,0,.16-.56l-1.2-2.19A.43.43,0,0,0,24.37,3h0a.45.45,0,0,0-.37.22L22,6.81a.41.41,0,0,0,.16.56A.35.35,0,0,0,22.38,7.42Z"/>
      </g>
    </g>
  </g>
</svg>
