<svg xmlns="http://www.w3.org/2000/svg" xmlns:xlink="http://www.w3.org/1999/xlink" viewBox="0 0 45.57 53.16">
  <defs>
    <style>
      .cls-1 {
        fill: url(#linear-gradient);
      }

      .cls-2 {
        fill: url(#linear-gradient-2);
      }

      .cls-3 {
        fill: url(#linear-gradient-3);
      }

      .cls-4 {
        fill: url(#linear-gradient-4);
      }

      .cls-5 {
        fill: url(#linear-gradient-5);
      }

      .cls-6 {
        fill: url(#linear-gradient-6);
      }

      .cls-7 {
        fill: url(#linear-gradient-7);
      }

      .cls-8 {
        fill: url(#linear-gradient-8);
      }

      .cls-9 {
        fill: url(#linear-gradient-9);
      }

      .cls-10 {
        fill: url(#linear-gradient-10);
      }

      .cls-11 {
        fill: url(#linear-gradient-11);
      }

      .cls-12 {
        fill: url(#linear-gradient-12);
      }

      .cls-13 {
        fill: url(#linear-gradient-13);
      }

      .cls-14 {
        fill: url(#linear-gradient-14);
      }

      .cls-15 {
        fill: url(#linear-gradient-15);
      }

      .cls-16 {
        fill: url(#linear-gradient-16);
      }

      .cls-17 {
        fill: url(#linear-gradient-17);
      }
    </style>
    <linearGradient id="linear-gradient" x1="10.57" y1="13.04" x2="36.42" y2="13.04" gradientUnits="userSpaceOnUse">
      <stop offset="0" stop-color="#a824e6"/>
      <stop offset="1" stop-color="#7957ff"/>
    </linearGradient>
    <linearGradient id="linear-gradient-2" x1="13.16" y1="13.05" x2="33.83" y2="13.05" xlink:href="#linear-gradient"/>
    <linearGradient id="linear-gradient-3" x1="25.01" y1="9.41" x2="31.35" y2="9.41" xlink:href="#linear-gradient"/>
    <linearGradient id="linear-gradient-4" x1="21.58" y1="13.05" x2="25.41" y2="13.05" xlink:href="#linear-gradient"/>
    <linearGradient id="linear-gradient-5" x1="10.57" y1="26.68" x2="11.39" y2="26.68" xlink:href="#linear-gradient"/>
    <linearGradient id="linear-gradient-6" x1="35.55" y1="27.83" x2="36.37" y2="27.83" xlink:href="#linear-gradient"/>
    <linearGradient id="linear-gradient-7" x1="28.75" y1="36.14" x2="29.57" y2="36.14" xlink:href="#linear-gradient"/>
    <linearGradient id="linear-gradient-8" x1="15.18" y1="35.28" x2="16" y2="35.28" xlink:href="#linear-gradient"/>
    <linearGradient id="linear-gradient-9" x1="23.6" y1="33.94" x2="24.42" y2="33.94" xlink:href="#linear-gradient"/>
    <linearGradient id="linear-gradient-10" x1="16.68" y1="35.1" x2="23.36" y2="35.1" xlink:href="#linear-gradient"/>
    <linearGradient id="linear-gradient-11" x1="0" y1="43.46" x2="45.57" y2="43.46" xlink:href="#linear-gradient"/>
    <linearGradient id="linear-gradient-12" x1="25" y1="34.41" x2="28.56" y2="34.41" xlink:href="#linear-gradient"/>
    <linearGradient id="linear-gradient-13" x1="29.95" y1="41.44" x2="31.84" y2="41.44" xlink:href="#linear-gradient"/>
    <linearGradient id="linear-gradient-14" x1="33.43" y1="45.94" x2="36.52" y2="45.94" xlink:href="#linear-gradient"/>
    <linearGradient id="linear-gradient-15" x1="25.73" y1="47.01" x2="28.82" y2="47.01" xlink:href="#linear-gradient"/>
    <linearGradient id="linear-gradient-16" x1="16.86" y1="41.57" x2="20.62" y2="41.57" xlink:href="#linear-gradient"/>
    <linearGradient id="linear-gradient-17" x1="13.09" y1="46.93" x2="16.18" y2="46.93" xlink:href="#linear-gradient"/>
  </defs>
  <g id="Layer_2" data-name="Layer 2">
    <g id="Layer_1-2" data-name="Layer 1">
      <g>
        <path class="cls-1" d="M23.5,26.09A13,13,0,1,0,10.57,13,13,13,0,0,0,23.5,26.09ZM23.5.82A12.22,12.22,0,1,1,11.39,13,12.18,12.18,0,0,1,23.5.82Z"/>
        <path class="cls-2" d="M23.5,23.49A10.44,10.44,0,1,0,13.16,13,10.4,10.4,0,0,0,23.5,23.49Zm0-20A9.61,9.61,0,1,1,14,13,9.56,9.56,0,0,1,23.5,3.44Z"/>
        <path class="cls-3" d="M25.32,6.18A7.13,7.13,0,0,1,30.53,13a.41.41,0,0,0,.41.42.42.42,0,0,0,.41-.42,8,8,0,0,0-5.82-7.66.41.41,0,0,0-.5.29A.42.42,0,0,0,25.32,6.18Z"/>
        <path class="cls-4" d="M23.5,15.81a1,1,0,0,1-1.11-1.17h-.81a1.8,1.8,0,0,0,1.58,1.91v.74h.6v-.72a1.8,1.8,0,0,0,1.65-1.85c0-2.09-2.92-2.05-2.92-3.5a.9.9,0,0,1,1-.94c.59,0,1,.34,1,1.1h.82a1.79,1.79,0,0,0-1.57-1.86V8.81h-.6v.73a1.63,1.63,0,0,0-1.47,1.66c0,2,2.9,2.06,2.9,3.51A1,1,0,0,1,23.5,15.81Z"/>
        <path class="cls-5" d="M11,30.53a.41.41,0,0,0,.41-.41V23.24a.41.41,0,0,0-.82,0v6.88A.41.41,0,0,0,11,30.53Z"/>
        <path class="cls-6" d="M35.55,20.75V34.92a.41.41,0,1,0,.82,0V20.75a.41.41,0,1,0-.82,0Z"/>
        <path class="cls-7" d="M29.16,44.2a.41.41,0,0,0,.41-.41V28.49a.41.41,0,0,0-.82,0v15.3A.41.41,0,0,0,29.16,44.2Z"/>
        <path class="cls-8" d="M16,44.45V26.1a.41.41,0,0,0-.41-.41.42.42,0,0,0-.41.41V44.45a.41.41,0,0,0,.41.41A.41.41,0,0,0,16,44.45Z"/>
        <path class="cls-9" d="M23.6,29v9.8a.41.41,0,0,0,.41.41.42.42,0,0,0,.41-.41V29a.42.42,0,0,0-.41-.42A.41.41,0,0,0,23.6,29Z"/>
        <path class="cls-10" d="M22.61,36.85a.41.41,0,1,0,.67-.48,7.67,7.67,0,0,0-6.19-3.18.41.41,0,1,0,0,.82A6.83,6.83,0,0,1,22.61,36.85Z"/>
        <path class="cls-11" d="M40,42h-.06c0-.12,0-.24,0-.36a4.78,4.78,0,0,0-4.75-4.8,5.12,5.12,0,0,0-1.12.13,7.25,7.25,0,0,0-3.65-2.84.42.42,0,0,0-.53.26.41.41,0,0,0,.26.52,6.38,6.38,0,0,1,3.38,2.75.41.41,0,0,0,.48.18,4.1,4.1,0,0,1,1.18-.17,4,4,0,0,1,3.93,4,4.61,4.61,0,0,1-.07.72.42.42,0,0,0,.1.32.41.41,0,0,0,.31.14H40a4.79,4.79,0,0,1,0,9.57H5.55a4.79,4.79,0,0,1-.66-9.52.46.46,0,0,0,.28-.17.41.41,0,0,0,.06-.32,2.89,2.89,0,0,1,0-.43A3.85,3.85,0,0,1,9,38a3.64,3.64,0,0,1,1.31.23.41.41,0,0,0,.53-.21,6.94,6.94,0,0,1,3.54-3.5.41.41,0,0,0-.33-.75,7.76,7.76,0,0,0-3.8,3.57A4.6,4.6,0,0,0,9,37.2a4.68,4.68,0,0,0-4.65,4.7v.17A5.64,5.64,0,0,0,0,47.56a5.58,5.58,0,0,0,5.55,5.6H40A5.61,5.61,0,0,0,40,42Z"/>
        <path class="cls-12" d="M28.56,34.11a.41.41,0,0,0-.41-.41,7,7,0,0,0-2.91.63.41.41,0,0,0-.21.54.42.42,0,0,0,.38.24.51.51,0,0,0,.17,0,6.13,6.13,0,0,1,2.57-.56A.41.41,0,0,0,28.56,34.11Z"/>
        <path class="cls-13" d="M31.43,43.1a.41.41,0,0,0,.41-.41,3.82,3.82,0,0,0-1.19-2.8.41.41,0,1,0-.57.59A3,3,0,0,1,31,42.69.41.41,0,0,0,31.43,43.1Z"/>
        <path class="cls-14" d="M35.69,47.09a.42.42,0,0,0,.83,0,2.69,2.69,0,0,0-2.68-2.7.41.41,0,0,0-.41.41.41.41,0,0,0,.41.41A1.87,1.87,0,0,1,35.69,47.09Z"/>
        <path class="cls-15" d="M26.14,46.28A1.87,1.87,0,0,1,28,48.16a.41.41,0,1,0,.82,0,2.69,2.69,0,0,0-2.68-2.7.41.41,0,0,0,0,.82Z"/>
        <path class="cls-16" d="M16.86,40.09a.42.42,0,0,0,.41.41,2.54,2.54,0,0,1,2.53,2.55.41.41,0,0,0,.82,0,3.36,3.36,0,0,0-3.35-3.37A.41.41,0,0,0,16.86,40.09Z"/>
        <path class="cls-17" d="M13.09,45.79a.42.42,0,0,0,.42.41,1.87,1.87,0,0,1,1.85,1.88.41.41,0,0,0,.82,0,2.7,2.7,0,0,0-2.67-2.71A.42.42,0,0,0,13.09,45.79Z"/>
      </g>
    </g>
  </g>
</svg>
