<svg xmlns="http://www.w3.org/2000/svg" viewBox="0 0 303.46 66.11">
  <defs>
    <style>
      .cls-1 {
        fill: #fff;
      }
    </style>
  </defs>
  <g id="Layer_2" data-name="Layer 2">
    <g id="Layer_1-2" data-name="Layer 1">
      <path class="cls-1" d="M173.65,46.37a5.55,5.55,0,0,1-.84-.77,7.4,7.4,0,0,1-1-1.52L159.44,16.26H152.9l3.1,7L146.76,44a5.9,5.9,0,0,1-1.87,2.36,1.5,1.5,0,0,1-.53.26l-1,.4v1.59h5l.9-.13v-.89l-.17-.73-.63-.2a1,1,0,0,1-.07-.33,4,4,0,0,1,.33-1.36l1.17-2.59h14.61l1.07,2.42a4,4,0,0,1,.43,1.49c0,.23,0,.37-.17.43l-.7.3v1.63h9.08l.9-.14V47l-1-.26a4.17,4.17,0,0,1-.5-.27Zm-22.72-6.24L157.23,26l6.31,14.15Z"/>
      <path class="cls-1" d="M204.43,19.28A10.91,10.91,0,0,0,201.06,17a10.2,10.2,0,0,0-4-.76H181.72l-.9.13v.9L181,18l.67.2s.1,0,.3.3a3.15,3.15,0,0,1,.4,1.45V44.91a3.24,3.24,0,0,1-.4,1.52.57.57,0,0,1-.44.3l-.63.33v1.56h8.07l.9-.13v-.9l-.23-.76-.64-.2a.84.84,0,0,1-.2-.23,1.86,1.86,0,0,1-.23-.53,4.24,4.24,0,0,1-.17-1v-8h8.78a10.82,10.82,0,0,0,4-.76,10,10,0,0,0,3.36-2.25,10.41,10.41,0,0,0,2.27-3.35,9.93,9.93,0,0,0,.77-3.95,10.63,10.63,0,0,0-.77-3.94,9.9,9.9,0,0,0-2.27-3.35ZM188.29,34.7V20a3.71,3.71,0,0,1,.36-1.53h7.44a5.88,5.88,0,0,1,2.37,1.43,7.77,7.77,0,0,1,1.8,2.88,10.17,10.17,0,0,1,.67,3.82,10.32,10.32,0,0,1-.63,3.71,9,9,0,0,1-1.71,2.85,5.82,5.82,0,0,1-2.2,1.49h-8.07Z"/>
      <path class="cls-1" d="M237.25,46.37a6.08,6.08,0,0,1-.83-.77,7,7,0,0,1-1-1.52L223,16.26h-6.53l3.1,7L210.37,44a5.9,5.9,0,0,1-1.87,2.36,1.59,1.59,0,0,1-.53.26l-1,.4v1.59h5l.9-.13v-.89l-.17-.73-.63-.2a1,1,0,0,1-.07-.33,3.86,3.86,0,0,1,.34-1.36l1.16-2.59h14.58l1.07,2.42a4,4,0,0,1,.43,1.49c0,.23,0,.37-.17.43l-.7.3v1.63h9.08l.9-.14V47l-1-.26a4.64,4.64,0,0,1-.51-.27Zm-22.71-6.24L220.84,26l6.31,14.15H214.54Z"/>
      <path class="cls-1" d="M236.45,16.26v2.82l.13.89h.9l.77-.23.2-.63a1,1,0,0,1,.27-.23,2.1,2.1,0,0,1,.6-.26,4.36,4.36,0,0,1,1.07-.17h10a2.87,2.87,0,0,1,.23.6,6.89,6.89,0,0,1,.17.86V44.84a3.79,3.79,0,0,1-.17,1,3.68,3.68,0,0,1-.23.53c-.14.16-.2.2-.2.23l-.87.37v1.62h8.07l.9-.13v-.9l-.13-.69-.64-.2s-.1,0-.26-.27a2.52,2.52,0,0,1-.4-1.49V20a3,3,0,0,1,.4-1.53h10a3.56,3.56,0,0,1,1.14.17,2.44,2.44,0,0,1,.6.26l.23.2.44.86h1.56V16.26H236.45Z"/>
      <path class="cls-1" d="M303.29,44.87h-.9l-.73.17-.2.66s0,.1-.3.3a3.12,3.12,0,0,1-1.67.4H286.32a3.06,3.06,0,0,1-.37-1.46V33.57h7.4a2.93,2.93,0,0,1,1.7.4.88.88,0,0,1,.37.43l.34.63h1.56V30.72l-.13-.9h-.9l-.7.13-.2.63s0,.1-.34.3a3,3,0,0,1-1.66.4h-7.47V19.94a3.55,3.55,0,0,1,.36-1.52h13.14a3.36,3.36,0,0,1,1.74.39.59.59,0,0,1,.33.44l.3.66h1.6V16.2H279.34l-.9.13v.89l.14.73.66.2s.1,0,.3.3a3,3,0,0,1,.41,1.46V44.84a3.09,3.09,0,0,1-.41,1.53.55.55,0,0,1-.43.29l-.63.34v1.55h25V45.74l-.13-.9Z"/>
      <path class="cls-1" d="M73.51,20.19a27,27,0,0,0-4,.8V62.16H67V21.78a24.87,24.87,0,0,0-4,1.92V62.16H60.5V25.59a11.87,11.87,0,0,0-4,9.06V62.16H53.33v4H76.71v-4h-3.2Z"/>
      <path class="cls-1" d="M76.71,13.46H53.33v3.95H76.71Z"/>
      <path class="cls-1" d="M36.36,20.19a27,27,0,0,0-4,.8V62.16H29.85V21.78a24.87,24.87,0,0,0-4,1.92V62.16H23.35V25.59a11.88,11.88,0,0,0-4,9.06V62.16h-3.2v4H39.56v-4h-3.2Z"/>
      <path class="cls-1" d="M39.56,13.46H16.18v3.95H39.56Z"/>
      <path class="cls-1" d="M110.67,20.19a27,27,0,0,0-4,.8V62.16h-2.53V21.78a24.46,24.46,0,0,0-4,1.92V62.16H97.66V25.59a11.88,11.88,0,0,0-4,9.06V62.16h-3.2v4h23.38v-4h-3.2Z"/>
      <path class="cls-1" d="M113.87,13.46H90.49v3.95h23.38Z"/>
      <path class="cls-1" d="M119.07,0H11V4H119.07Z"/>
      <path class="cls-1" d="M123.38,6.83H6.67a6.63,6.63,0,1,0,6.67,6.63h-4a2.7,2.7,0,1,1-2.7-2.69H123.38a2.69,2.69,0,1,1-2.7,2.69h-4a6.67,6.67,0,1,0,6.67-6.63Z"/>
      <path class="cls-1" d="M181.49,60.37h-1.25a1.8,1.8,0,0,0-.35-.58,1.91,1.91,0,0,0-.5-.44,2.3,2.3,0,0,0-.6-.27,2.57,2.57,0,0,0-.67-.09,2.41,2.41,0,0,0-.93.18,2.32,2.32,0,0,0-.75.51,2.43,2.43,0,0,0-.52.77,2.56,2.56,0,0,0-.18,1,2.47,2.47,0,0,0,.18,1,2.43,2.43,0,0,0,.52.77,2.32,2.32,0,0,0,.75.51,2.41,2.41,0,0,0,.93.18,2.91,2.91,0,0,0,.66-.08,3.05,3.05,0,0,0,.61-.27,2.53,2.53,0,0,0,.5-.43,2,2,0,0,0,.35-.59h1.25a3.06,3.06,0,0,1-.51,1,3.44,3.44,0,0,1-.81.76,4.08,4.08,0,0,1-1,.47,3.93,3.93,0,0,1-1.06.15,3.88,3.88,0,0,1-1.41-.26,3.83,3.83,0,0,1-1.14-.75,3.39,3.39,0,0,1-.76-1.1,3.33,3.33,0,0,1,0-2.72,3.39,3.39,0,0,1,.76-1.1,3.8,3.8,0,0,1,1.14-.74,3.68,3.68,0,0,1,1.41-.26,3.93,3.93,0,0,1,1.06.15,3.71,3.71,0,0,1,1,.46,3.24,3.24,0,0,1,.81.76A3.16,3.16,0,0,1,181.49,60.37Z"/>
      <path class="cls-1" d="M188.83,58.09h1.43l-2.62,4.11v2.53h-1.21V62.21l-2.62-4.12h1.42l1.8,3h0Z"/>
      <path class="cls-1" d="M195.54,59.14H194v2.37h1.54a1.12,1.12,0,0,0,.45-.08,1.12,1.12,0,0,0,.6-.63,1.17,1.17,0,0,0,.08-.46,1.22,1.22,0,0,0-.08-.47,1.19,1.19,0,0,0-.25-.38,1.16,1.16,0,0,0-.36-.25A1,1,0,0,0,195.54,59.14Zm.07,3.42H194v2.17h-1.21V58.09h2.8a2.51,2.51,0,0,1,.92.17,2.13,2.13,0,0,1,.73.47,1.94,1.94,0,0,1,.48.71,2.44,2.44,0,0,1,0,1.79,2.15,2.15,0,0,1-.47.71,2.21,2.21,0,0,1-.73.46A2.45,2.45,0,0,1,195.61,62.56Z"/>
      <path class="cls-1" d="M203.43,59.14h-1.6v2.23h1.61a1.08,1.08,0,0,0,.44-.08,1,1,0,0,0,.6-.57,1.14,1.14,0,0,0,.09-.46,1.13,1.13,0,0,0-.09-.45,1.09,1.09,0,0,0-.24-.35,1.13,1.13,0,0,0-.36-.24A1.33,1.33,0,0,0,203.43,59.14Zm1,3.12,1.48,2.47h-1.39l-1.31-2.31h-1.4v2.31h-1.22V58.09h2.87a2.51,2.51,0,0,1,.92.16,2.07,2.07,0,0,1,.73.44,1.87,1.87,0,0,1,.48.69,2.26,2.26,0,0,1,.17.88,2.11,2.11,0,0,1-.36,1.24A2,2,0,0,1,204.45,62.26Z"/>
      <path class="cls-1" d="M213,62.17V58.09h1.21v4.07a2.8,2.8,0,0,1-.2,1.1,2.56,2.56,0,0,1-.58.86,2.59,2.59,0,0,1-.9.56,3.23,3.23,0,0,1-1.15.2,3.14,3.14,0,0,1-1.12-.19,2.85,2.85,0,0,1-.91-.54,2.66,2.66,0,0,1-.6-.86,2.88,2.88,0,0,1-.21-1.13V58.09h1.21v4.07a2,2,0,0,0,.11.66,1.48,1.48,0,0,0,.31.53,1.57,1.57,0,0,0,.51.36,1.86,1.86,0,0,0,.7.12,1.83,1.83,0,0,0,.68-.12,1.71,1.71,0,0,0,.51-.35,1.67,1.67,0,0,0,.32-.53A2,2,0,0,0,213,62.17Z"/>
      <path class="cls-1" d="M216.9,62.74h1.21a.88.88,0,0,0,.11.42,1,1,0,0,0,.3.36,1.87,1.87,0,0,0,.47.23,2,2,0,0,0,.61.08,2.06,2.06,0,0,0,1.16-.25.79.79,0,0,0,.37-.71.74.74,0,0,0-.13-.46.91.91,0,0,0-.36-.3,2.18,2.18,0,0,0-.55-.21l-.71-.17-.46-.09c-.16,0-.32-.08-.49-.14a4.19,4.19,0,0,1-.49-.2,1.73,1.73,0,0,1-.41-.3,1.37,1.37,0,0,1-.29-.42,1.48,1.48,0,0,1-.11-.57,2.24,2.24,0,0,1,.15-.84,1.65,1.65,0,0,1,.46-.65,2.13,2.13,0,0,1,.82-.43,4.18,4.18,0,0,1,1.2-.15,3.1,3.1,0,0,1,1,.14,2.12,2.12,0,0,1,.74.41,1.71,1.71,0,0,1,.46.63,2.18,2.18,0,0,1,.16.82H220.9a.87.87,0,0,0-.08-.37.7.7,0,0,0-.24-.3,1,1,0,0,0-.38-.2,1.84,1.84,0,0,0-.55-.07,2.36,2.36,0,0,0-.64.07,1.25,1.25,0,0,0-.4.21.61.61,0,0,0-.2.28,1,1,0,0,0-.06.33.57.57,0,0,0,.12.37.83.83,0,0,0,.34.26,2,2,0,0,0,.51.17,5.23,5.23,0,0,0,.64.12c.32.07.62.15.91.24a2.68,2.68,0,0,1,.76.36,1.55,1.55,0,0,1,.53.58,1.66,1.66,0,0,1,.2.88,1.85,1.85,0,0,1-.2.86,1.91,1.91,0,0,1-.57.63,2.73,2.73,0,0,1-.88.39,4.47,4.47,0,0,1-1.14.13,3.34,3.34,0,0,1-1.19-.19,2.45,2.45,0,0,1-.84-.49,1.94,1.94,0,0,1-.49-.69A2.11,2.11,0,0,1,216.9,62.74Z"/>
      <path class="cls-1" d="M229.16,64.73V58.09h4.55v1.06h-3.33v1.77h2.88v1h-2.88v1.71h3.38v1.05Z"/>
      <path class="cls-1" d="M236.2,62.74h1.22a.88.88,0,0,0,.11.42,1,1,0,0,0,.3.36,1.87,1.87,0,0,0,.47.23,1.9,1.9,0,0,0,.6.08,2.12,2.12,0,0,0,1.17-.25.87.87,0,0,0,.24-1.17.91.91,0,0,0-.36-.3,2.34,2.34,0,0,0-.55-.21l-.71-.17-.46-.09c-.16,0-.33-.08-.5-.14a4,4,0,0,1-.48-.2,1.6,1.6,0,0,1-.42-.3,1.54,1.54,0,0,1-.28-.42,1.32,1.32,0,0,1-.11-.57,2.47,2.47,0,0,1,.14-.84,1.67,1.67,0,0,1,.47-.65,2.08,2.08,0,0,1,.81-.43,4.3,4.3,0,0,1,1.21-.15,3,3,0,0,1,1,.14,2.12,2.12,0,0,1,.74.41,1.52,1.52,0,0,1,.46.63,2,2,0,0,1,.16.82H240.2a.75.75,0,0,0-.08-.37.76.76,0,0,0-.23-.3,1,1,0,0,0-.39-.2A1.73,1.73,0,0,0,239,59a2.31,2.31,0,0,0-.64.07,1.16,1.16,0,0,0-.4.21.63.63,0,0,0-.21.28,1,1,0,0,0-.06.33.52.52,0,0,0,.13.37.87.87,0,0,0,.33.26,2.35,2.35,0,0,0,.51.17,5.8,5.8,0,0,0,.65.12c.32.07.62.15.91.24a2.81,2.81,0,0,1,.76.36,1.64,1.64,0,0,1,.53.58,1.76,1.76,0,0,1,.2.88,1.74,1.74,0,0,1-.21.86,1.77,1.77,0,0,1-.56.63,2.83,2.83,0,0,1-.88.39,4.47,4.47,0,0,1-1.14.13,3.36,3.36,0,0,1-1.2-.19,2.5,2.5,0,0,1-.83-.49,1.94,1.94,0,0,1-.49-.69A2.12,2.12,0,0,1,236.2,62.74Z"/>
      <path class="cls-1" d="M246,64.73V59.14h-2v-1h5.17v1h-2v5.59Z"/>
      <path class="cls-1" d="M254.57,59.86l0-.17h0l0,.17-1.06,2.56h2.2ZM254,58.09h1.15l2.76,6.64h-1.29l-.52-1.26H253l-.52,1.26h-1.29Z"/>
      <path class="cls-1" d="M261.87,64.73V59.14h-2v-1h5.17v1h-2v5.59Z"/>
      <path class="cls-1" d="M267.74,64.73V58.09h4.55v1.06H269v1.77h2.88v1H269v1.71h3.38v1.05Z"/>
    </g>
  </g>
</svg>
