<svg xmlns="http://www.w3.org/2000/svg" xmlns:xlink="http://www.w3.org/1999/xlink" viewBox="0 0 48.01 47.93">
  <defs>
    <style>
      .cls-1, .cls-2, .cls-3, .cls-4, .cls-5, .cls-6, .cls-7, .cls-8 {
        fill-rule: evenodd;
      }

      .cls-1 {
        fill: url(#linear-gradient);
      }

      .cls-2 {
        fill: url(#linear-gradient-2);
      }

      .cls-3 {
        fill: url(#linear-gradient-3);
      }

      .cls-4 {
        fill: url(#linear-gradient-4);
      }

      .cls-5 {
        fill: url(#linear-gradient-5);
      }

      .cls-6 {
        fill: url(#linear-gradient-6);
      }

      .cls-7 {
        fill: url(#linear-gradient-7);
      }

      .cls-8 {
        fill: url(#linear-gradient-8);
      }
    </style>
    <linearGradient id="linear-gradient" x1="24.66" y1="23.96" x2="48.01" y2="23.96" gradientUnits="userSpaceOnUse">
      <stop offset="0" stop-color="#a824e6"/>
      <stop offset="1" stop-color="#7957ff"/>
    </linearGradient>
    <linearGradient id="linear-gradient-2" x1="0" y1="23.96" x2="23.36" y2="23.96" xlink:href="#linear-gradient"/>
    <linearGradient id="linear-gradient-3" x1="9.77" y1="23.77" x2="12.52" y2="23.77" xlink:href="#linear-gradient"/>
    <linearGradient id="linear-gradient-4" x1="35.5" y1="23.77" x2="38.24" y2="23.77" xlink:href="#linear-gradient"/>
    <linearGradient id="linear-gradient-5" x1="15.08" y1="22" x2="32.93" y2="22" xlink:href="#linear-gradient"/>
    <linearGradient id="linear-gradient-6" x1="17.2" y1="22.01" x2="30.81" y2="22.01" xlink:href="#linear-gradient"/>
    <linearGradient id="linear-gradient-7" x1="23.6" y1="19.76" x2="28.87" y2="19.76" xlink:href="#linear-gradient"/>
    <linearGradient id="linear-gradient-8" x1="22.6" y1="22" x2="25.46" y2="22" xlink:href="#linear-gradient"/>
  </defs>
  <g id="Layer_2" data-name="Layer 2">
    <g id="Layer_1-2" data-name="Layer 1">
      <g>
        <path class="cls-1" d="M48,24.79a10.63,10.63,0,0,0-6.66-9.9,6.73,6.73,0,0,0,1-3.58,6.56,6.56,0,0,0-6.53-6.57c-.24,0-.47,0-.71,0a5.26,5.26,0,0,0-10.49.54v6.49a.41.41,0,0,0,.41.41.41.41,0,0,0,.41-.41V5.32A4.44,4.44,0,0,1,34.34,5a4.35,4.35,0,0,0-2.6,3c-.31.18-1.48.66-3.39-.69a.41.41,0,0,0-.47.68,4.38,4.38,0,0,0,3.65,1,9.94,9.94,0,0,0,0,2.69.41.41,0,0,0,.45.36.4.4,0,0,0,.36-.45c-.56-5.19,2.39-5.79,2.52-5.81h0a5.76,5.76,0,0,1,5.7,9,5,5,0,0,0-5.69,2.46.41.41,0,0,0,.15.56.4.4,0,0,0,.56-.14,4.23,4.23,0,0,1,5-2h0A9.86,9.86,0,0,1,40.76,34c-.72-1.16-3.53-5.13-7.93-3.92a.41.41,0,0,0-.28.51.41.41,0,0,0,.5.29c4.39-1.21,7,3.43,7.15,3.79a4.72,4.72,0,0,1,.37,1.84,4.77,4.77,0,0,1-5.69,4.72A3.62,3.62,0,0,1,33,39.5a2.45,2.45,0,0,1,.29-2.06.41.41,0,1,0-.72-.4,3.23,3.23,0,0,0-.34,2.75,4.23,4.23,0,0,0,2.17,2.15v.67a4.44,4.44,0,1,1-8.88,0v-6.1a1.79,1.79,0,0,1,.89-1.15,2.49,2.49,0,0,1,1.75,0,.41.41,0,1,0,.32-.76,3.25,3.25,0,0,0-2.41,0,2,2,0,0,0-.55.36V32.21a.42.42,0,0,0-.41-.41.41.41,0,0,0-.41.41v10.4a5.26,5.26,0,1,0,10.52,0v-.46q.32,0,.63,0a5.61,5.61,0,0,0,5.58-5.63,5.54,5.54,0,0,0-.28-1.76A10.63,10.63,0,0,0,48,24.79Z"/>
        <path class="cls-2" d="M23,31.8a.41.41,0,0,0-.41.41V35a2.17,2.17,0,0,0-.55-.36,3.27,3.27,0,0,0-2.42,0,.41.41,0,0,0,.33.76,2.46,2.46,0,0,1,1.74,0,1.81,1.81,0,0,1,.9,1.15v6.1a4.44,4.44,0,1,1-8.88,0v-.67a4.3,4.3,0,0,0,2.17-2.15A3.24,3.24,0,0,0,15.48,37a.41.41,0,0,0-.72.4,2.41,2.41,0,0,1,.29,2.06,3.62,3.62,0,0,1-1.92,1.77,4.77,4.77,0,0,1-5.69-4.72,4.91,4.91,0,0,1,.37-1.84c.19-.36,2.77-5,7.17-3.79a.41.41,0,0,0,.22-.8C10.79,28.91,8,32.88,7.25,34a9.86,9.86,0,0,1,.19-18.56h0a4.19,4.19,0,0,1,5,2,.41.41,0,0,0,.71-.42,5,5,0,0,0-5.69-2.46,5.8,5.8,0,0,1-1-3.3,5.71,5.71,0,0,1,6.72-5.65h0c.13,0,3.07.62,2.51,5.81a.41.41,0,0,0,.36.45.42.42,0,0,0,.46-.36,10.82,10.82,0,0,0,0-2.69,4.4,4.4,0,0,0,3.65-1,.42.42,0,0,0-.48-.68c-1.9,1.35-3.08.87-3.39.69a4.33,4.33,0,0,0-2.6-3,4.44,4.44,0,0,1,8.87.37v6.49a.41.41,0,0,0,.41.41.41.41,0,0,0,.41-.41V5.32a5.26,5.26,0,0,0-10.5-.54c-.23,0-.47,0-.71,0a6.55,6.55,0,0,0-6.52,6.57,6.64,6.64,0,0,0,1,3.58,10.69,10.69,0,0,0,.24,19.9,5.55,5.55,0,0,0-.29,1.76,5.61,5.61,0,0,0,5.58,5.63q.33,0,.63,0v.46a5.27,5.27,0,1,0,10.53,0V32.21A.42.42,0,0,0,23,31.8Z"/>
        <path class="cls-3" d="M10.55,21a.42.42,0,0,0-.54.23,4.49,4.49,0,0,0,1.85,5.23.43.43,0,0,0,.24.08.42.42,0,0,0,.34-.17.43.43,0,0,0-.09-.58,3.62,3.62,0,0,1-1.58-4.25A.41.41,0,0,0,10.55,21Z"/>
        <path class="cls-4" d="M35.67,25.8a.41.41,0,0,0-.09.58.4.4,0,0,0,.33.17.43.43,0,0,0,.24-.08A4.47,4.47,0,0,0,38,21.24a.41.41,0,0,0-.53-.23.42.42,0,0,0-.23.54A3.62,3.62,0,0,1,35.67,25.8Z"/>
        <path class="cls-5" d="M32.93,22A8.93,8.93,0,1,0,24,31,9,9,0,0,0,32.93,22ZM24,30.19A8.19,8.19,0,1,1,32.11,22,8.15,8.15,0,0,1,24,30.19Z"/>
        <path class="cls-6" d="M24,15.14A6.88,6.88,0,1,0,30.81,22,6.85,6.85,0,0,0,24,15.14Zm0,12.92A6.05,6.05,0,1,1,30,22,6,6,0,0,1,24,28.06Z"/>
        <path class="cls-7" d="M24,17.11a.42.42,0,0,0,0,.83,4.06,4.06,0,0,1,4,4.06.41.41,0,1,0,.82,0A4.88,4.88,0,0,0,24,17.11Z"/>
        <path class="cls-8" d="M23.4,20.7a.56.56,0,0,1,.64-.57c.37,0,.62.23.64.7h.71a1.27,1.27,0,0,0-1.09-1.36v-.55h-.57v.55a1.2,1.2,0,0,0-1,1.22c0,1.48,2,1.53,2,2.52a.63.63,0,0,1-.7.67.67.67,0,0,1-.72-.76H22.6a1.34,1.34,0,0,0,1.13,1.44v.52h.57v-.52a1.33,1.33,0,0,0,1.16-1.35C25.46,21.67,23.4,21.67,23.4,20.7Z"/>
      </g>
    </g>
  </g>
</svg>
