<svg xmlns="http://www.w3.org/2000/svg" xmlns:xlink="http://www.w3.org/1999/xlink" viewBox="0 0 595 595">
  <defs>
    <style>
      .cls-1 {
        fill: none;
      }

      .cls-2 {
        clip-path: url(#clip-path);
      }

      .cls-3 {
        fill: red;
      }

      .cls-4 {
        opacity: 0.15;
      }

      .cls-5 {
        fill: #fff;
      }
    </style>
    <clipPath id="clip-path">
      <circle class="cls-1" cx="297.5" cy="297.5" r="297.5"/>
    </clipPath>
  </defs>
  <g id="Layer_2" data-name="Layer 2">
    <g id="Слой_2" data-name="Слой 2">
      <g id="YouTube">
        <g>
          <g class="cls-2">
            <circle class="cls-3" cx="297.5" cy="297.5" r="420.73"/>
            <path class="cls-4" d="M297.5,0C133.2,0,0,133.2,0,297.5S133.2,595,297.5,595,595,461.8,595,297.5,461.8,0,297.5,0Zm208,505.46a293.14,293.14,0,1,1,63-93.48A293.08,293.08,0,0,1,505.46,505.46Z"/>
          </g>
          <g>
            <g>
              <path class="cls-5" d="M427.64,429.2h0a2424.7,2424.7,0,0,1-260.28,0h0c-35.48-.72-61.42-25.95-62.59-61.66h0a749.7,749.7,0,0,1-.21-140.21l.21-2.24c1.17-35.71,27.11-61,62.59-61.67h0a2429.9,2429.9,0,0,1,260.28,0h0c35.48.72,61.42,26,62.59,61.67l.21,2.24a750.55,750.55,0,0,1-.21,140.21h0C489.06,403.24,463.12,428.49,427.64,429.2Z"/>
              <path class="cls-4" d="M490.44,227.33l-.21-2.24c-1.17-35.71-27.11-61-62.59-61.67h0a2429.9,2429.9,0,0,0-260.28,0c-35.48.72-61.42,26-62.59,61.67l-.21,2.24a749.7,749.7,0,0,0,.21,140.21c1.17,35.71,27.11,60.94,62.59,61.66a2424.7,2424.7,0,0,0,260.28,0h0c35.48-.71,61.42-26,62.59-61.66A749.7,749.7,0,0,0,490.44,227.33Zm-3.57,140c-1.1,33.81-25.65,57.86-59.2,58.53-43.31,2.3-87.05,3.47-130.17,3.47s-86.85-1.17-130.06-3.47c-33.65-.67-58.2-24.72-59.29-58.31a752.84,752.84,0,0,1-.22-139.94c.07-.75.13-1.5.2-2.24,1.1-33.8,25.66-57.85,59.2-58.52,43.31-2.3,87.06-3.48,130.17-3.47s86.86,1.17,130.06,3.47c33.65.67,58.2,24.72,59.29,58.31.08.82.15,1.64.22,2.45A752.18,752.18,0,0,1,486.87,367.29Z"/>
              <path class="cls-5" d="M297.5,429.31c-43.09,0-86.83-1.17-130-3.48-34.5-.71-59.33-25.17-60.46-59.49a751.86,751.86,0,0,1-.21-139.93l.2-2.24c1.14-34.46,26-58.92,60.39-59.62,43.27-2.32,87-3.49,130.1-3.49s86.83,1.17,130,3.49c34.5.7,59.33,25.16,60.46,59.49l.21,2.37A751.21,751.21,0,0,1,488,366.2c-1.14,34.47-26,58.93-60.4,59.62C384.33,428.14,340.59,429.31,297.5,429.31Z"/>
            </g>
            <g>
              <polygon class="cls-3" points="260.31 241.23 358.23 296.31 260.31 351.4 260.31 241.23"/>
              <path class="cls-4" d="M256.92,235.45V357.18l108.21-60.87Zm3.39,5.78,97.92,55.08L260.31,351.4Z"/>
              <polygon class="cls-3" points="260.35 240.43 361.7 297.44 260.35 354.45 260.35 240.43"/>
            </g>
          </g>
        </g>
      </g>
    </g>
  </g>
</svg>
