<svg xmlns="http://www.w3.org/2000/svg" viewBox="0 0 30.85 30.87">
  <defs>
    <style>
      .cls-1 {
        fill: #1f395c;
      }
    </style>
  </defs>
  <g id="Layer_2" data-name="Layer 2">
    <g id="icons">
      <g>
        <path class="cls-1" d="M29.28,22.13,25.35,20c-1-.52-1.7-.14-2.53,1-1.81,2.49-2.69,3-4.91,1.74a24,24,0,0,1-5.41-4.39,23.92,23.92,0,0,1-4.4-5.42C6.86,10.71,7.36,9.83,9.85,8c1.13-.82,1.5-1.56,1-2.52L8.72,1.57C7.85-.1,6.63-.29,4.81.32,2.31,1.17-.12,4.79,0,6.5c.36,5,2.87,11,8.1,16.27s11.25,7.74,16.27,8.1c1.72.12,5.31-2.33,6.16-4.83C31.14,24.22,31,23,29.28,22.13Z"/>
        <path class="cls-1" d="M17.52,7a1.5,1.5,0,0,0,0,3h0a3.31,3.31,0,0,1,3.33,3.36,1.5,1.5,0,0,0,1.49,1.51h0a1.5,1.5,0,0,0,1.5-1.49,6.26,6.26,0,0,0-1.85-4.53A6.42,6.42,0,0,0,17.52,7Zm9-2.57A12.56,12.56,0,0,0,17.53.73,1.51,1.51,0,0,0,16,2.24a1.5,1.5,0,0,0,1.5,1.49h0a9.59,9.59,0,0,1,9.59,9.62,1.5,1.5,0,0,0,1.49,1.51h0a1.5,1.5,0,0,0,1.5-1.49A12.5,12.5,0,0,0,26.47,4.42Z"/>
      </g>
    </g>
  </g>
</svg>
