<svg xmlns="http://www.w3.org/2000/svg" xmlns:xlink="http://www.w3.org/1999/xlink" viewBox="0 0 23.21 47.94">
  <defs>
    <style>
      .cls-1, .cls-2, .cls-3, .cls-4 {
        fill-rule: evenodd;
      }

      .cls-1 {
        fill: url(#linear-gradient);
      }

      .cls-2 {
        fill: url(#linear-gradient-2);
      }

      .cls-3 {
        fill: url(#linear-gradient-3);
      }

      .cls-4 {
        fill: url(#linear-gradient-4);
      }
    </style>
    <linearGradient id="linear-gradient" y1="23.97" x2="23.21" y2="23.97" gradientUnits="userSpaceOnUse">
      <stop offset="0" stop-color="#a824e6"/>
      <stop offset="1" stop-color="#7957ff"/>
    </linearGradient>
    <linearGradient id="linear-gradient-2" x1="2.97" y1="36.45" x2="20.07" y2="36.45" xlink:href="#linear-gradient"/>
    <linearGradient id="linear-gradient-3" x1="15.62" y1="36.45" x2="18.32" y2="36.45" xlink:href="#linear-gradient"/>
    <linearGradient id="linear-gradient-4" x1="9.62" y1="36.46" x2="13.41" y2="36.46" xlink:href="#linear-gradient"/>
  </defs>
  <g id="Layer_2" data-name="Layer 2">
    <g id="Layer_1-2" data-name="Layer 1">
      <g>
        <path class="cls-1" d="M15.71,22.14,23.19.55a.41.41,0,1,0-.78-.27L14.93,21.87a.41.41,0,0,0,.08.4l-.19,0-3-8.61.13,0a.42.42,0,0,0,.39-.28L16.8.55A.42.42,0,0,0,16.54,0,.41.41,0,0,0,16,.28L11.61,13,7.19.28a.41.41,0,1,0-.77.27L14.1,22.67a.69.69,0,0,0,.05.13l.09.26H8.79a.25.25,0,0,1-.13-.12L.8.28A.41.41,0,0,0,.28,0,.42.42,0,0,0,0,.55L7.63,22.49a1.31,1.31,0,0,0-.46,1v2.36a11.51,11.51,0,0,0,4.35,22.11,11.51,11.51,0,0,0,4.34-22.11V23.47a1.25,1.25,0,0,0-.61-1.06h.07A.42.42,0,0,0,15.71,22.14Zm6.37,14.31A10.63,10.63,0,0,1,11.52,47.12a10.67,10.67,0,0,1,0-21.34A10.63,10.63,0,0,1,22.08,36.45ZM11.52,25A11.38,11.38,0,0,0,8,25.52V23.45a1,1,0,0,0,.78.43h5.63a.69.69,0,0,0,.56-.27s0-.1,0-.14h0v2.05A11.32,11.32,0,0,0,11.52,25Z"/>
        <path class="cls-2" d="M3,36.45a8.55,8.55,0,1,0,8.55-8.63A8.6,8.6,0,0,0,3,36.45Zm16.27,0a7.73,7.73,0,1,1-7.72-7.81A7.77,7.77,0,0,1,19.24,36.45Z"/>
        <path class="cls-3" d="M17.5,36.45a6,6,0,0,1-1.76,4.27.41.41,0,0,0,0,.58.42.42,0,0,0,.29.12.4.4,0,0,0,.29-.12,6.89,6.89,0,0,0,0-9.7.41.41,0,1,0-.59.58A6,6,0,0,1,17.5,36.45Z"/>
        <path class="cls-4" d="M11.17,32.25V33a1.61,1.61,0,0,0-1.45,1.65c0,2,2.89,2,2.89,3.49a1,1,0,0,1-1.08,1.09,1.06,1.06,0,0,1-1.12-1.15H9.62a1.78,1.78,0,0,0,1.55,1.89v.72h.62V40a1.78,1.78,0,0,0,1.62-1.85c0-2.06-2.89-2-2.89-3.47a.91.91,0,0,1,1-.94c.57,0,1,.36,1,1.1h.8A1.75,1.75,0,0,0,11.79,33v-.71Z"/>
      </g>
    </g>
  </g>
</svg>
