<svg xmlns="http://www.w3.org/2000/svg" xmlns:xlink="http://www.w3.org/1999/xlink" viewBox="0 0 34.77 45.36">
  <defs>
    <style>
      .cls-1, .cls-2, .cls-3, .cls-4, .cls-5, .cls-6, .cls-7, .cls-8 {
        fill-rule: evenodd;
      }

      .cls-1 {
        fill: url(#linear-gradient);
      }

      .cls-2 {
        fill: url(#linear-gradient-2);
      }

      .cls-3 {
        fill: url(#linear-gradient-3);
      }

      .cls-4 {
        fill: url(#linear-gradient-4);
      }

      .cls-5 {
        fill: url(#linear-gradient-5);
      }

      .cls-6 {
        fill: url(#linear-gradient-6);
      }

      .cls-7 {
        fill: url(#linear-gradient-7);
      }

      .cls-8 {
        fill: url(#linear-gradient-8);
      }
    </style>
    <linearGradient id="linear-gradient" x1="9.93" y1="34.93" x2="29.36" y2="34.93" gradientUnits="userSpaceOnUse">
      <stop offset="0" stop-color="#a824e6"/>
      <stop offset="1" stop-color="#7957ff"/>
    </linearGradient>
    <linearGradient id="linear-gradient-2" x1="9.93" y1="30.96" x2="29.36" y2="30.96" xlink:href="#linear-gradient"/>
    <linearGradient id="linear-gradient-3" x1="13.01" y1="11.84" x2="26.28" y2="11.84" xlink:href="#linear-gradient"/>
    <linearGradient id="linear-gradient-4" x1="13.44" y1="20.23" x2="25.87" y2="20.23" xlink:href="#linear-gradient"/>
    <linearGradient id="linear-gradient-5" x1="4.52" y1="20.23" x2="34.77" y2="20.23" xlink:href="#linear-gradient"/>
    <linearGradient id="linear-gradient-6" x1="2.25" y1="22.61" x2="32.51" y2="22.61" xlink:href="#linear-gradient"/>
    <linearGradient id="linear-gradient-7" x1="0" y1="25.13" x2="30.24" y2="25.13" xlink:href="#linear-gradient"/>
    <linearGradient id="linear-gradient-8" x1="17.91" y1="20.22" x2="21.45" y2="20.22" xlink:href="#linear-gradient"/>
  </defs>
  <g id="Layer_2" data-name="Layer 2">
    <g id="Layer_1-2" data-name="Layer 1">
      <g>
        <path class="cls-1" d="M29,34.52H10.34a.41.41,0,0,0,0,.82H29a.41.41,0,1,0,0-.82Z"/>
        <path class="cls-2" d="M29,30.55H10.34a.41.41,0,0,0-.41.41.41.41,0,0,0,.41.41H29a.41.41,0,0,0,.41-.41A.41.41,0,0,0,29,30.55Z"/>
        <path class="cls-3" d="M13.42,12.25H25.87a.41.41,0,0,0,0-.82H13.42a.41.41,0,1,0,0,.82Z"/>
        <path class="cls-4" d="M19.65,14a6.27,6.27,0,1,0,6.22,6.25A6.24,6.24,0,0,0,19.65,14Zm0,11.71a5.45,5.45,0,1,1,5.4-5.46A5.43,5.43,0,0,1,19.65,25.68Z"/>
        <path class="cls-5" d="M34.76,9a.09.09,0,0,0,0,0,.3.3,0,0,0-.1-.19L26.08.12a.44.44,0,0,0-.19-.1h-21a.41.41,0,0,0-.41.41V40.05a.41.41,0,0,0,.41.42H34.36a.41.41,0,0,0,.41-.42v-31A.09.09,0,0,0,34.76,9Zm-1.38-.36H26.2V1.41l4.66,4.72Zm-28,31V.82h20V9.09a.41.41,0,0,0,.41.41H34V39.64Z"/>
        <path class="cls-6" d="M32.09,42h-29V2.8a.41.41,0,0,0-.82,0V42.43a.41.41,0,0,0,.41.41H32.09a.42.42,0,1,0,0-.83Z"/>
        <path class="cls-7" d="M29.83,44.53H.82V5.32a.41.41,0,0,0-.41-.41A.41.41,0,0,0,0,5.32V45a.41.41,0,0,0,.41.41H29.83a.42.42,0,0,0,0-.83Z"/>
        <path class="cls-8" d="M18.9,18.63a.7.7,0,0,1,.79-.71c.45,0,.76.28.78.86h.88A1.58,1.58,0,0,0,20,17.1v-.66h-.72v.67A1.46,1.46,0,0,0,18,18.61c0,1.81,2.53,1.88,2.53,3.1a.79.79,0,0,1-.86.84.83.83,0,0,1-.88-.94h-.9a1.65,1.65,0,0,0,1.38,1.76V24H20v-.64a1.63,1.63,0,0,0,1.44-1.66C21.45,19.83,18.9,19.83,18.9,18.63Z"/>
      </g>
    </g>
  </g>
</svg>
