<svg xmlns="http://www.w3.org/2000/svg" xmlns:xlink="http://www.w3.org/1999/xlink" viewBox="0 0 44.38 48.11">
  <defs>
    <style>
      .cls-1 {
        fill: url(#linear-gradient);
      }

      .cls-2 {
        fill: url(#linear-gradient-2);
      }

      .cls-3 {
        fill: url(#linear-gradient-3);
      }

      .cls-4 {
        fill: url(#linear-gradient-4);
      }
    </style>
    <linearGradient id="linear-gradient" x1="20.81" y1="18.78" x2="30.78" y2="18.78" gradientUnits="userSpaceOnUse">
      <stop offset="0" stop-color="#a824e6"/>
      <stop offset="1" stop-color="#7957ff"/>
    </linearGradient>
    <linearGradient id="linear-gradient-2" x1="14.01" y1="18.78" x2="37.58" y2="18.78" xlink:href="#linear-gradient"/>
    <linearGradient id="linear-gradient-3" x1="7.21" y1="24.05" x2="44.38" y2="24.05" xlink:href="#linear-gradient"/>
    <linearGradient id="linear-gradient-4" x1="0" y1="12.46" x2="26.2" y2="12.46" xlink:href="#linear-gradient"/>
  </defs>
  <g id="Layer_2" data-name="Layer 2">
    <g id="Layer_1-2" data-name="Layer 1">
      <g>
        <path class="cls-1" d="M21.32,17.81a.41.41,0,0,0-.47.33,3.44,3.44,0,0,0,0,.64,5,5,0,1,0,5-5,4.92,4.92,0,0,0-4.07,2.15.4.4,0,0,0,.11.57.41.41,0,0,0,.57-.1,4.08,4.08,0,0,1,3.39-1.8,4.22,4.22,0,1,1-4.15,4.22,2.43,2.43,0,0,1,0-.49A.41.41,0,0,0,21.32,17.81Z"/>
        <path class="cls-2" d="M14.77,15.92a.41.41,0,0,0-.49.31A11.53,11.53,0,0,0,14,18.78,11.79,11.79,0,1,0,25.78,6.87a11.7,11.7,0,0,0-10.42,6.36.41.41,0,0,0,.17.56.42.42,0,0,0,.56-.18,10.88,10.88,0,0,1,9.69-5.92,11.09,11.09,0,1,1-11,11.09,10.57,10.57,0,0,1,.25-2.37A.41.41,0,0,0,14.77,15.92Z"/>
        <path class="cls-3" d="M44.38,18.78A18.71,18.71,0,0,0,25.78,0,18.43,18.43,0,0,0,10.94,7.46.42.42,0,0,0,11,8,.42.42,0,0,0,11.6,8,17.61,17.61,0,0,1,25.78.82a18,18,0,0,1,4.51,35.3V33.24a.42.42,0,0,0-.41-.42.41.41,0,0,0-.41.42v3.09a17.24,17.24,0,0,1-3.69.4,17.69,17.69,0,0,1-3.66-.39v-3.1a.41.41,0,1,0-.82,0v2.88A17.93,17.93,0,0,1,8,18.78a.41.41,0,1,0-.82,0A18.74,18.74,0,0,0,21.3,37V47.7a.41.41,0,0,0,.82,0V37.18a18.47,18.47,0,0,0,3.66.37,18.77,18.77,0,0,0,3.69-.37V47.7a.41.41,0,0,0,.41.41.42.42,0,0,0,.41-.41V37A18.75,18.75,0,0,0,44.38,18.78Z"/>
        <path class="cls-4" d="M7.49,17a.39.39,0,0,0,.29-.13l3-3.07,14.88,5.41.14,0a.42.42,0,0,0,.39-.27.41.41,0,0,0-.24-.53L11,13l-.35-4.3a.41.41,0,0,0-.27-.35L3.34,5.76A.39.39,0,0,0,3,5.82a.41.41,0,0,0-.16.36l.32,3.92-.75-.28a.41.41,0,0,0-.28.78l.76.27L.12,13.68a.41.41,0,0,0-.11.38.4.4,0,0,0,.26.29l7.08,2.57A.32.32,0,0,0,7.49,17ZM3.66,6.75,9.89,9l.3,3.66-1.44-.53L4,10.41Zm0,4.43,5,1.82,1.22.44L7.38,16.06,1.15,13.8Z"/>
      </g>
    </g>
  </g>
</svg>
