<svg xmlns="http://www.w3.org/2000/svg" xmlns:xlink="http://www.w3.org/1999/xlink" viewBox="0 0 595 597.52">
  <defs>
    <style>
      .cls-1 {
        fill: none;
      }

      .cls-2 {
        clip-path: url(#clip-path);
      }

      .cls-3 {
        fill: #fff;
      }

      .cls-4 {
        opacity: 0.15;
      }

      .cls-5 {
        fill: url(#Безымянный_градиент_16);
      }

      .cls-6 {
        opacity: 0.1;
      }
    </style>
    <clipPath id="clip-path" transform="translate(0 2.52)">
      <circle class="cls-1" cx="297.5" cy="297.5" r="297.5"/>
    </clipPath>
    <linearGradient id="Безымянный_градиент_16" data-name="Безымянный градиент 16" x1="297.5" y1="595" x2="297.5" gradientUnits="userSpaceOnUse">
      <stop offset="0" stop-color="#097ec4"/>
      <stop offset="1" stop-color="#05affd"/>
    </linearGradient>
  </defs>
  <g id="Layer_2" data-name="Layer 2">
    <g id="Слой_2" data-name="Слой 2">
      <g id="Telegram">
        <g>
          <g class="cls-2">
            <circle class="cls-3" cx="297.5" cy="297.5" r="420.73"/>
            <path class="cls-4" d="M297.5,0C133.2,0,0,133.2,0,297.5S133.2,595,297.5,595,595,461.8,595,297.5,461.8,0,297.5,0Zm208,505.46a293.14,293.14,0,1,1,63-93.48A293.08,293.08,0,0,1,505.46,505.46Z" transform="translate(0 2.52)"/>
          </g>
          <g>
            <path class="cls-5" d="M87.14,507.86A296.52,296.52,0,0,0,297.25,595h.25a297.5,297.5,0,0,0,0-595h-.25A297.49,297.49,0,0,0,87.14,507.86Z" transform="translate(0 2.52)"/>
            <path class="cls-6" d="M297.5,0C133.2,0,0,133.2,0,297.5S133.2,595,297.5,595,595,461.8,595,297.5,461.8,0,297.5,0Zm0,590.65C135.86,590.65,4.35,459.14,4.35,297.5S135.86,4.35,297.5,4.35,590.65,135.86,590.65,297.5,459.14,590.65,297.5,590.65Z" transform="translate(0 2.52)"/>
            <g>
              <path class="cls-6" d="M380.78,452.84a28,28,0,0,1-15.43-4.66L260.24,379A21.3,21.3,0,0,1,257.07,346l99.57-97.07a2,2,0,0,0,.57-2.32,2.45,2.45,0,0,0-2.1-1.56,2.32,2.32,0,0,0-1.3.45L222.26,334.39a58.08,58.08,0,0,1-32.65,10l-1.62,0A57.9,57.9,0,0,1,173,342l-54.89-16.82c-1.2-.47-9.54-4.12-10.9-12.44a15.53,15.53,0,0,1,1.51-9.31c2.14-4.53,5.63-7,8.77-8.86,10.2-6,24.78-11.56,30.58-13.68,42.74-18.07,95.57-40.35,95.57-40.35l66.1-27.82c21.63-8.17,39.8-15.14,54.12-20.77l.32-.13c4-1.59,13.49-5.31,26.37-10,7.55-2.77,13.76-4.94,17.8-6.34,3.68-1.46,11.1-4,18.15-4h.62a18.79,18.79,0,0,1,7.48,1.52,18.45,18.45,0,0,1,6.11,4.59c3,3.58,3.76,7.9,3.22,18.47-.29,5.64-15.45,111.39-18.36,129.71-2.35,14.82-4.85,29.85-7.43,44.69l-9.47,58.75a28.05,28.05,0,0,1-27.84,23.64Z" transform="translate(0 2.52)"/>
              <path class="cls-3" d="M438.43,179.46a15.45,15.45,0,0,0-5.07-3.79A15.72,15.72,0,0,0,427,174.4c-7.29-.15-15.2,2.79-17.75,3.8-4,1.39-10.22,3.56-17.75,6.32-13.21,4.83-23,8.67-26.63,10.11-10.57,4.16-27.35,10.67-54.05,20.75l-66.1,27.82S191.91,265.48,149,283.61c-2.91,1.06-19.23,7.06-30.1,13.44-2.23,1.31-5.66,3.48-7.6,7.59a12.82,12.82,0,0,0-1.27,7.59c1.12,6.8,8.27,9.86,8.87,10.11l54.86,16.81A55.56,55.56,0,0,0,220.62,332l116-78.42L352.17,243c5.22-3.53,11,3.56,6.51,7.95l-14.35,14-85.22,83.08a18.37,18.37,0,0,0,2.74,28.53L338.47,427,367,445.74a25.22,25.22,0,0,0,38.77-17l8.49-52.62,1-6.18q3.82-22,7.43-44.64c3.24-20.43,18.05-124.12,18.32-129.4C441.48,185.86,440.75,182.23,438.43,179.46Z" transform="translate(0 2.52)"/>
              <path class="cls-3" d="M380.79,445.52a20.74,20.74,0,0,1-11.41-3.46L264.27,372.91a14,14,0,0,1-2.09-21.72l99.57-97.06A9.3,9.3,0,0,0,364,243.8a9.48,9.48,0,0,0-14.28-4.42L218.15,328.32A50.68,50.68,0,0,1,189.61,337h-1.42a51.23,51.23,0,0,1-13.14-2.09l-54.59-16.73c-.87-.4-5.4-2.64-6.06-6.7a8.56,8.56,0,0,1,.9-5c1.46-3.09,4.32-4.77,5.86-5.68,10-5.84,25-11.51,29.38-13.1,43.08-18.21,95.91-40.49,95.91-40.49l66.1-27.82c21.4-8.07,39.6-15.06,53.95-20.71l.32-.12c4-1.58,13.42-5.27,26.21-9.95,7.5-2.75,13.67-4.91,17.68-6.3,3.48-1.37,9.91-3.56,15.75-3.56h.46a11.36,11.36,0,0,1,4.64.88,11.18,11.18,0,0,1,3.5,2.61c1.34,1.6,2,4.21,1.51,13.38-.24,4.83-15,108.37-18.28,128.94-2.34,14.78-4.83,29.78-7.41,44.58L401.39,428a20.74,20.74,0,0,1-20.6,17.48Z" transform="translate(0 2.52)"/>
            </g>
          </g>
        </g>
      </g>
    </g>
  </g>
</svg>
